<svg xmlns="http://www.w3.org/2000/svg" xmlns:xlink="http://www.w3.org/1999/xlink" width="500" zoomAndPan="magnify" viewBox="0 0 375 374.999991" height="500" preserveAspectRatio="xMidYMid meet" version="1.0"><defs><g/></defs><g fill="#000000" fill-opacity="1"><g transform="translate(45.260744, 209.062486)"><g><path d="M 6.109375 0 L 6.109375 -41.90625 L 11.375 -41.90625 L 11.375 -23.890625 L 17.359375 -23.890625 C 20.191406 -23.890625 22.328125 -24.394531 23.765625 -25.40625 C 25.203125 -26.425781 26.34375 -28.078125 27.1875 -30.359375 L 31.5 -41.90625 L 37.0625 -41.90625 L 31.90625 -28.265625 C 31.3125 -26.660156 30.582031 -25.269531 29.71875 -24.09375 C 28.863281 -22.914062 27.835938 -21.929688 26.640625 -21.140625 L 38.671875 0 L 32.578125 0 L 21.734375 -19.21875 C 20.421875 -18.976562 18.960938 -18.859375 17.359375 -18.859375 L 11.375 -18.859375 L 11.375 0 Z M 6.109375 0 "/></g></g></g><g fill="#000000" fill-opacity="1"><g transform="translate(83.21838, 209.062486)"><g><path d="M 19.578125 0.78125 C 16.347656 0.78125 13.492188 0.0820312 11.015625 -1.3125 C 8.546875 -2.707031 6.609375 -4.644531 5.203125 -7.125 C 3.804688 -9.601562 3.109375 -12.414062 3.109375 -15.5625 C 3.109375 -18.757812 3.804688 -21.570312 5.203125 -24 C 6.609375 -26.4375 8.546875 -28.351562 11.015625 -29.75 C 13.492188 -31.15625 16.347656 -31.859375 19.578125 -31.859375 C 22.804688 -31.859375 25.660156 -31.15625 28.140625 -29.75 C 30.617188 -28.351562 32.554688 -26.4375 33.953125 -24 C 35.347656 -21.570312 36.046875 -18.757812 36.046875 -15.5625 C 36.046875 -12.414062 35.347656 -9.601562 33.953125 -7.125 C 32.554688 -4.644531 30.617188 -2.707031 28.140625 -1.3125 C 25.660156 0.0820312 22.804688 0.78125 19.578125 0.78125 Z M 8.140625 -15.5625 C 8.140625 -13.289062 8.628906 -11.285156 9.609375 -9.546875 C 10.585938 -7.816406 11.929688 -6.472656 13.640625 -5.515625 C 15.359375 -4.554688 17.335938 -4.078125 19.578125 -4.078125 C 21.816406 -4.078125 23.789062 -4.554688 25.5 -5.515625 C 27.21875 -6.472656 28.566406 -7.816406 29.546875 -9.546875 C 30.523438 -11.285156 31.015625 -13.289062 31.015625 -15.5625 C 31.015625 -17.84375 30.523438 -19.835938 29.546875 -21.546875 C 28.566406 -23.265625 27.21875 -24.613281 25.5 -25.59375 C 23.789062 -26.570312 21.816406 -27.0625 19.578125 -27.0625 C 17.335938 -27.0625 15.359375 -26.570312 13.640625 -25.59375 C 11.929688 -24.613281 10.585938 -23.265625 9.609375 -21.546875 C 8.628906 -19.835938 8.140625 -17.84375 8.140625 -15.5625 Z M 8.140625 -15.5625 "/></g></g></g><g fill="#000000" fill-opacity="1"><g transform="translate(119.379888, 209.062486)"><g><path d="M 22.515625 0.78125 C 19.960938 0.78125 17.632812 0.28125 15.53125 -0.71875 C 13.4375 -1.71875 11.691406 -3.078125 10.296875 -4.796875 L 9.703125 0 L 5.5625 0 L 5.5625 -44.3125 L 10.59375 -44.3125 L 10.59375 -26.640625 C 11.988281 -28.273438 13.710938 -29.550781 15.765625 -30.46875 C 17.828125 -31.394531 20.078125 -31.859375 22.515625 -31.859375 C 25.585938 -31.859375 28.3125 -31.148438 30.6875 -29.734375 C 33.0625 -28.316406 34.925781 -26.390625 36.28125 -23.953125 C 37.632812 -21.515625 38.3125 -18.71875 38.3125 -15.5625 C 38.3125 -12.414062 37.632812 -9.613281 36.28125 -7.15625 C 34.925781 -4.695312 33.0625 -2.757812 30.6875 -1.34375 C 28.3125 0.0703125 25.585938 0.78125 22.515625 0.78125 Z M 10.421875 -15.5625 C 10.421875 -13.332031 10.910156 -11.347656 11.890625 -9.609375 C 12.867188 -7.867188 14.210938 -6.507812 15.921875 -5.53125 C 17.640625 -4.5625 19.617188 -4.078125 21.859375 -4.078125 C 24.128906 -4.078125 26.125 -4.5625 27.84375 -5.53125 C 29.5625 -6.507812 30.898438 -7.867188 31.859375 -9.609375 C 32.816406 -11.347656 33.296875 -13.332031 33.296875 -15.5625 C 33.296875 -17.800781 32.816406 -19.785156 31.859375 -21.515625 C 30.898438 -23.253906 29.5625 -24.613281 27.84375 -25.59375 C 26.125 -26.570312 24.128906 -27.0625 21.859375 -27.0625 C 19.617188 -27.0625 17.640625 -26.570312 15.921875 -25.59375 C 14.210938 -24.613281 12.867188 -23.253906 11.890625 -21.515625 C 10.910156 -19.785156 10.421875 -17.800781 10.421875 -15.5625 Z M 10.421875 -15.5625 "/></g></g></g><g fill="#000000" fill-opacity="1"><g transform="translate(157.816493, 209.062486)"><g><path d="M 19.578125 0.78125 C 16.347656 0.78125 13.492188 0.0820312 11.015625 -1.3125 C 8.546875 -2.707031 6.609375 -4.644531 5.203125 -7.125 C 3.804688 -9.601562 3.109375 -12.414062 3.109375 -15.5625 C 3.109375 -18.757812 3.804688 -21.570312 5.203125 -24 C 6.609375 -26.4375 8.546875 -28.351562 11.015625 -29.75 C 13.492188 -31.15625 16.347656 -31.859375 19.578125 -31.859375 C 22.804688 -31.859375 25.660156 -31.15625 28.140625 -29.75 C 30.617188 -28.351562 32.554688 -26.4375 33.953125 -24 C 35.347656 -21.570312 36.046875 -18.757812 36.046875 -15.5625 C 36.046875 -12.414062 35.347656 -9.601562 33.953125 -7.125 C 32.554688 -4.644531 30.617188 -2.707031 28.140625 -1.3125 C 25.660156 0.0820312 22.804688 0.78125 19.578125 0.78125 Z M 8.140625 -15.5625 C 8.140625 -13.289062 8.628906 -11.285156 9.609375 -9.546875 C 10.585938 -7.816406 11.929688 -6.472656 13.640625 -5.515625 C 15.359375 -4.554688 17.335938 -4.078125 19.578125 -4.078125 C 21.816406 -4.078125 23.789062 -4.554688 25.5 -5.515625 C 27.21875 -6.472656 28.566406 -7.816406 29.546875 -9.546875 C 30.523438 -11.285156 31.015625 -13.289062 31.015625 -15.5625 C 31.015625 -17.84375 30.523438 -19.835938 29.546875 -21.546875 C 28.566406 -23.265625 27.21875 -24.613281 25.5 -25.59375 C 23.789062 -26.570312 21.816406 -27.0625 19.578125 -27.0625 C 17.335938 -27.0625 15.359375 -26.570312 13.640625 -25.59375 C 11.929688 -24.613281 10.585938 -23.265625 9.609375 -21.546875 C 8.628906 -19.835938 8.140625 -17.84375 8.140625 -15.5625 Z M 8.140625 -15.5625 "/></g></g></g><g fill="#ffffff" fill-opacity="1"><g transform="translate(197.223757, 209.090845)"><g><path d="M 6.6875 0 L 6.6875 -41.421875 L 29.53125 -41.421875 L 29.53125 -38.046875 L 10.296875 -38.046875 L 10.296875 -21.78125 L 27.984375 -21.78125 L 27.984375 -18.46875 L 10.296875 -18.46875 L 10.296875 0 Z M 6.6875 0 "/></g></g></g><g fill="#ffffff" fill-opacity="1"><g transform="translate(227.392601, 209.090845)"><g><path d="M 6.09375 0 L 6.09375 -43.78125 L 9.53125 -43.78125 L 9.53125 0 Z M 6.09375 0 "/></g></g></g><g fill="#ffffff" fill-opacity="1"><g transform="translate(240.051173, 209.090845)"><g><path d="M 19.53125 0.765625 C 16.375 0.765625 13.582031 0.0859375 11.15625 -1.265625 C 8.726562 -2.628906 6.832031 -4.523438 5.46875 -6.953125 C 4.113281 -9.378906 3.4375 -12.171875 3.4375 -15.328125 C 3.4375 -18.484375 4.113281 -21.265625 5.46875 -23.671875 C 6.832031 -26.078125 8.726562 -27.957031 11.15625 -29.3125 C 13.582031 -30.675781 16.375 -31.359375 19.53125 -31.359375 C 22.6875 -31.359375 25.46875 -30.675781 27.875 -29.3125 C 30.28125 -27.957031 32.160156 -26.078125 33.515625 -23.671875 C 34.878906 -21.265625 35.5625 -18.484375 35.5625 -15.328125 C 35.5625 -12.171875 34.878906 -9.378906 33.515625 -6.953125 C 32.160156 -4.523438 30.28125 -2.628906 27.875 -1.265625 C 25.46875 0.0859375 22.6875 0.765625 19.53125 0.765625 Z M 6.859375 -15.328125 C 6.859375 -12.796875 7.390625 -10.570312 8.453125 -8.65625 C 9.523438 -6.75 11.015625 -5.253906 12.921875 -4.171875 C 14.835938 -3.085938 17.039062 -2.546875 19.53125 -2.546875 C 22.007812 -2.546875 24.195312 -3.085938 26.09375 -4.171875 C 27.988281 -5.253906 29.46875 -6.75 30.53125 -8.65625 C 31.59375 -10.570312 32.125 -12.796875 32.125 -15.328125 C 32.125 -17.847656 31.59375 -20.054688 30.53125 -21.953125 C 29.46875 -23.847656 27.988281 -25.335938 26.09375 -26.421875 C 24.195312 -27.503906 22.007812 -28.046875 19.53125 -28.046875 C 17.039062 -28.046875 14.835938 -27.503906 12.921875 -26.421875 C 11.015625 -25.335938 9.523438 -23.847656 8.453125 -21.953125 C 7.390625 -20.054688 6.859375 -17.847656 6.859375 -15.328125 Z M 6.859375 -15.328125 "/></g></g></g><g fill="#ffffff" fill-opacity="1"><g transform="translate(276.076485, 209.090845)"><g><path d="M 12.3125 0 L 1.296875 -30.59375 L 4.96875 -30.59375 L 14.03125 -5.140625 L 18.34375 -16.265625 L 23.84375 -30.59375 L 27.046875 -30.59375 L 32.609375 -16.265625 L 36.921875 -5.140625 L 46.03125 -30.59375 L 49.640625 -30.59375 L 38.578125 0 L 35.265625 0 L 30 -13.671875 L 25.4375 -25.5625 L 15.625 0 Z M 12.3125 0 "/></g></g></g></svg>